<svg width="54" height="16" viewBox="0 0 159 48" fill="none" xmlns="http://www.w3.org/2000/svg">
<path d="M21.0837 35.0625C21.0837 33.2083 20.6046 31.8125 19.6462 30.875C18.7087 29.9167 16.99 28.9271 14.49 27.9062C9.9275 26.1771 6.64625 24.1562 4.64625 21.8438C2.64625 19.5104 1.64625 16.7604 1.64625 13.5938C1.64625 9.76042 3.00041 6.6875 5.70875 4.375C8.43791 2.04167 11.8962 0.875 16.0837 0.875C18.8754 0.875 21.365 1.46875 23.5525 2.65625C25.74 3.82292 27.4171 5.47917 28.5837 7.625C29.7712 9.77083 30.365 12.2083 30.365 14.9375H21.2087C21.2087 12.8125 20.7504 11.1979 19.8337 10.0938C18.9379 8.96875 17.6358 8.40625 15.9275 8.40625C14.3233 8.40625 13.0733 8.88542 12.1775 9.84375C11.2817 10.7812 10.8337 12.0521 10.8337 13.6562C10.8337 14.9062 11.3337 16.0417 12.3337 17.0625C13.3337 18.0625 15.1046 19.1042 17.6462 20.1875C22.0837 21.7917 25.3025 23.7604 27.3025 26.0938C29.3233 28.4271 30.3337 31.3958 30.3337 35C30.3337 38.9583 29.0733 42.0521 26.5525 44.2812C24.0317 46.5104 20.6046 47.625 16.2712 47.625C13.3337 47.625 10.6567 47.0208 8.24 45.8125C5.82333 44.6042 3.9275 42.875 2.5525 40.625C1.19833 38.375 0.521248 35.7188 0.521248 32.6562H9.74C9.74 35.2812 10.2504 37.1875 11.2712 38.375C12.2921 39.5625 13.9587 40.1562 16.2712 40.1562C19.4796 40.1562 21.0837 38.4583 21.0837 35.0625ZM63.12 47H53.9325L40.495 17.1562V47H31.3075V1.5H40.495L53.9637 31.375V1.5H63.12V47ZM96.3125 41.8438C94.5417 43.7604 92.3646 45.2083 89.7812 46.1875C87.2188 47.1458 84.4062 47.625 81.3438 47.625C76.1146 47.625 72.0521 46.0104 69.1562 42.7812C66.2604 39.5312 64.7708 34.8125 64.6875 28.625V20.4375C64.6875 14.1667 66.0521 9.34375 68.7812 5.96875C71.5312 2.57292 75.5312 0.875 80.7812 0.875C85.7188 0.875 89.4375 2.09375 91.9375 4.53125C94.4583 6.96875 95.9167 10.7917 96.3125 16H87.375C87.125 13.1042 86.5208 11.1354 85.5625 10.0938C84.6042 9.03125 83.1042 8.5 81.0625 8.5C78.5833 8.5 76.7812 9.40625 75.6562 11.2188C74.5312 13.0312 73.9479 15.9167 73.9062 19.875V28.125C73.9062 32.2708 74.5208 35.2917 75.75 37.1875C77 39.0625 79.0417 40 81.875 40C83.6875 40 85.1562 39.6354 86.2812 38.9062L87.0938 38.3438V30H80.6562V23.0625H96.3125V41.8438ZM110.505 29.4375L106.88 34V47H97.6925V1.5H106.88V21.3438L109.786 16.4375L118.255 1.5H129.505L116.474 21.5L129.724 47H118.817L110.505 29.4375ZM141.791 30.375H137.229V47H128.041V1.5H142.698C147.302 1.5 150.854 2.69792 153.354 5.09375C155.875 7.46875 157.135 10.8542 157.135 15.25C157.135 21.2917 154.937 25.5208 150.541 27.9375L158.51 46.5625V47H148.635L141.791 30.375ZM137.229 22.7188H142.448C144.281 22.7188 145.656 22.1146 146.573 20.9062C147.489 19.6771 147.948 18.0417 147.948 16C147.948 11.4375 146.166 9.15625 142.604 9.15625H137.229V22.7188Z" fill="white"/>
</svg>
